PathFileType	4	(X/Y/Z)	marker_full_rot.trc																																																				
DataRate	CameraRate	NumFrames	NumMarkers	Units	OrigDataRate	OrigDataStartFrame	OrigNumFrames																																																
512	512	6	18	m	512	78	124																																																
Frame#	Time	XIPH			STER			CLAV_SC			CLAV_AC			SCAP_CP			SCAP_AA			SCAP_TS			SCAP_IA			DELT			ARMl			EPICl			EPICm			LARM_ant			LARM_post			LARM_elb			LARM_dist			STYLrad			STYLulna		
		X1	Y1	Z1	X2	Y2	Z2	X3	Y3	Z3	X4	Y4	Z4	X5	Y5	Z5	X6	Y6	Z6	X7	Y7	Z7	X8	Y8	Z8	X9	Y9	Z9	X10	Y10	Z10	X11	Y11	Z11	X12	Y12	Z12	X13	Y13	Z13	X14	Y14	Z14	X15	Y15	Z15	X16	Y16	Z16	X17	Y17	Z17	X18	Y18	Z18
																																																							
78	0.150243902439024	0.782179931640625	-0.368962158203125	0.545122863769531	0.778490783691406	-0.339063079833984	0.6926787109375	0.758224243164063	-0.325874145507812	0.710957702636719	0.577569702148437	-0.274624145507812	0.695653991699219	0.643404479980469	-0.303037811279297	0.672478332519531	0.554872131347656	-0.246431182861328	0.686097106933594	0.684456359863281	-0.148406326293945	0.710309326171875	0.665728759765625	-0.118524452209473	0.573936340332031	0.51704296875	-0.300953704833984	0.48667529296875	0.511234100341797	-0.312174346923828	0.450251525878906	0.506682525634766	-0.314258483886719	0.36432275390625	0.566182739257812	-0.303983245849609	0.344642425537109	0.544321472167969	-0.386361877441406	0.314178894042969	0.482035552978516	-0.349343292236328	0.294510314941406	0.516888732910156	-0.317929901123047	0.297862945556641	0.475915679931641	-0.430848266601562	0.251933898925781	0.463004333496094	-0.492637908935547	0.153518035888672	0.450524566650391	-0.443061767578125	0.139340972900391
79	0.15219512195122	0.782370056152344	-0.368764739990234	0.54519140625	0.778548095703125	-0.338689910888672	0.692734069824219	0.758302368164063	-0.325220886230469	0.710924133300781	0.578781433105469	-0.273916748046875	0.695533203125	0.643768005371094	-0.302561126708984	0.67277392578125	0.555010803222656	-0.246193283081055	0.686401489257813	0.684418884277344	-0.147780792236328	0.709863891601562	0.665635498046875	-0.11810661315918	0.573701293945313	0.516695068359375	-0.305996826171875	0.488735443115234	0.510797973632813	-0.318450256347656	0.452767700195312	0.505001251220703	-0.324983642578125	0.366366058349609	0.565039978027344	-0.313616516113281	0.346557159423828	0.543652587890625	-0.397042755126953	0.319064849853516	0.480939880371094	-0.361363372802734	0.298480377197266	0.51569189453125	-0.329466369628906	0.300548187255859	0.475462036132813	-0.444199981689453	0.258732360839844	0.462767547607422	-0.509389099121094	0.162577407836914	0.449536376953125	-0.460651947021484	0.146799331665039
80	0.154146341463415	0.782558410644531	-0.368528289794922	0.545229797363281	0.778612243652344	-0.338148193359375	0.692740905761719	0.7583310546875	-0.324800445556641	0.710973937988281	0.579131652832031	-0.273344696044922	0.696148498535156	0.644194641113281	-0.301954223632812	0.673247436523437	0.555306091308594	-0.245902084350586	0.68682763671875	0.684351684570312	-0.147167434692383	0.709484069824219	0.665347839355469	-0.118049781799316	0.573301391601562	0.516354309082031	-0.311083740234375	0.491132568359375	0.510400939941406	-0.32481689453125	0.455618103027344	0.504093383789063	-0.334556579589844	0.36941015625	0.563978820800781	-0.323226898193359	0.348908508300781	0.543103881835938	-0.407748779296875	0.324470153808594	0.479962158203125	-0.373417999267578	0.303052795410156	0.514484619140625	-0.341251953125	0.303804656982422	0.474931274414062	-0.457636138916016	0.266265014648437	0.462269775390625	-0.526348388671875	0.172561965942383	0.448759643554688	-0.478243896484375	0.155093078613281
81	0.15609756097561	0.782693176269531	-0.368219879150391	0.545239318847656	0.778529479980469	-0.337765991210938	0.692788696289062	0.758338134765625	-0.324326965332031	0.711024719238281	0.579574951171875	-0.272792205810547	0.696696411132813	0.644436645507812	-0.301530700683594	0.673714965820313	0.555502807617188	-0.245614959716797	0.687488342285156	0.684240173339844	-0.146546997070313	0.709089782714844	0.665139221191406	-0.117986961364746	0.573005249023437	0.515924255371094	-0.316308319091797	0.493920471191406	0.509970733642578	-0.331289611816406	0.458972290039063	0.502755767822266	-0.344070709228516	0.373328063964844	0.562841369628906	-0.333172515869141	0.351728698730469	0.54247119140625	-0.418356903076172	0.330507751464844	0.478991912841797	-0.385574768066406	0.308345367431641	0.513047424316406	-0.352991821289062	0.307777282714844	0.474402984619141	-0.471105255126953	0.274561981201172	0.461922302246094	-0.543112548828125	0.183447357177734	0.447975677490234	-0.495781311035156	0.164291748046875
82	0.158048780487805	0.782812194824219	-0.3679560546875	0.545290588378906	0.778575866699219	-0.337118011474609	0.692821899414062	0.758367065429688	-0.323828826904297	0.711091796875	0.579709533691406	-0.272328796386719	0.697779174804688	0.644721740722656	-0.300991760253906	0.674411437988281	0.555602783203125	-0.245344284057617	0.688221435546875	0.684123718261719	-0.146031768798828	0.708832580566406	0.664843811035156	-0.117908569335937	0.572724060058594	0.515477172851562	-0.321635375976562	0.497046875	0.50925732421875	-0.337961791992187	0.462701232910156	0.502891784667969	-0.352571594238281	0.377925506591797	0.561735595703125	-0.343073822021484	0.355199676513672	0.541837158203125	-0.429026092529297	0.337032531738281	0.478032775878906	-0.397738616943359	0.314286285400391	0.511707733154297	-0.364928253173828	0.312344696044922	0.474018890380859	-0.484512573242187	0.283628051757812	0.461567718505859	-0.559755981445312	0.195231826782227	0.447280090332031	-0.513427124023437	0.174381607055664
83	0.16	0.782957458496094	-0.367546752929687	0.545292785644531	0.778538818359375	-0.336667999267578	0.69290478515625	0.758304931640625	-0.323295867919922	0.711139404296875	0.5803984375	-0.271356292724609	0.698829406738281	0.644939819335937	-0.300589172363281	0.67509814453125	0.555646667480469	-0.245151931762695	0.689052734375	0.683954956054687	-0.145439788818359	0.708538757324219	0.664485412597656	-0.118207176208496	0.572260681152344	0.5149990234375	-0.326959899902344	0.500558929443359	0.508691558837891	-0.344624572753906	0.466936401367188	0.501159301757813	-0.363507476806641	0.382280212402344	0.560408813476562	-0.352984039306641	0.359273712158203	0.54134423828125	-0.439855072021484	0.344341186523437	0.476945465087891	-0.410047637939453	0.320901733398437	0.510348846435547	-0.376683135986328	0.317620788574219	0.473565490722656	-0.497817687988281	0.293387512207031	0.461034912109375	-0.5763701171875	0.207846618652344	0.446731079101563	-0.530673889160156	0.185406997680664
